<?xml version="1.0" encoding="UTF-8" standalone="no"?>
<svg
   xmlns:dc="http://purl.org/dc/elements/1.1/"
   xmlns:cc="http://creativecommons.org/ns#"
   xmlns:rdf="http://www.w3.org/1999/02/22-rdf-syntax-ns#"
   xmlns:svg="http://www.w3.org/2000/svg"
   xmlns="http://www.w3.org/2000/svg"
   xmlns:sodipodi="http://sodipodi.sourceforge.net/DTD/sodipodi-0.dtd"
   xmlns:inkscape="http://www.inkscape.org/namespaces/inkscape"
   aria-hidden="true"
   focusable="false"
   data-prefix="far"
   data-icon="edit"
   class="svg-inline--fa fa-edit fa-w-18"
   role="img"
   viewBox="0 0 576 512"
   version="1.1"
   id="svg4"
   sodipodi:docname="edit-regularb.svg"
   inkscape:version="0.92.4 (5da689c313, 2019-01-14)">
  <metadata
     id="metadata10">
    <rdf:RDF>
      <cc:Work
         rdf:about="">
        <dc:format>image/svg+xml</dc:format>
        <dc:type
           rdf:resource="http://purl.org/dc/dcmitype/StillImage" />
        <dc:title></dc:title>
      </cc:Work>
    </rdf:RDF>
  </metadata>
  <defs
     id="defs8" />
  <sodipodi:namedview
     pagecolor="#ffffff"
     bordercolor="#666666"
     borderopacity="1"
     objecttolerance="10"
     gridtolerance="10"
     guidetolerance="10"
     inkscape:pageopacity="0"
     inkscape:pageshadow="2"
     inkscape:window-width="1920"
     inkscape:window-height="1017"
     id="namedview6"
     showgrid="false"
     inkscape:zoom="0.921875"
     inkscape:cx="124.93892"
     inkscape:cy="325.2499"
     inkscape:window-x="-8"
     inkscape:window-y="-8"
     inkscape:window-maximized="1"
     inkscape:current-layer="svg4" />
  <path
     fill="currentColor"
     d="M402.3 344.9l32-32c5-5 13.7-1.5 13.7 5.7V464c0 26.5-21.5 48-48 48H48c-26.5 0-48-21.5-48-48V112c0-26.5 21.5-48 48-48h273.5c7.1 0 10.7 8.6 5.7 13.7l-32 32c-1.5 1.5-3.5 2.3-5.7 2.3H48v352h352V350.5c0-2.1.8-4.1 2.3-5.6zm156.6-201.8L296.3 405.7l-90.4 10c-26.2 2.9-48.5-19.2-45.6-45.6l10-90.4L432.9 17.1c22.9-22.9 59.9-22.9 82.7 0l43.2 43.2c22.9 22.9 22.9 60 .1 82.8zM460.1 174L402 115.9 216.2 301.8l-7.3 65.3 65.3-7.3L460.1 174zm64.8-79.7l-43.2-43.2c-4.1-4.1-10.8-4.1-14.8 0L436 82l58.1 58.1 30.9-30.9c4-4.2 4-10.8-.1-14.9z"
     id="path2" />
  <path
     style="opacity:1;fill:#ffffff;fill-opacity:1;fill-rule:nonzero;stroke:none;stroke-width:2.38644075;stroke-linecap:round;stroke-linejoin:round;stroke-miterlimit:4;stroke-dasharray:none;stroke-opacity:1"
     d="M 31.829356,508.463 C 22.643334,505.05 14.265469,498.46144 8.9059097,490.43543 -0.10828313,476.93658 0.66553718,494.75504 0.33504552,293.07733 0.15756234,184.77088 0.44678952,110.64504 1.0642525,106.18934 3.9042566,85.695508 19.806348,69.01968 40.097145,65.257259 c 3.695628,-0.685262 56.762456,-1.083433 144.396085,-1.083433 138.52793,0 138.55363,4.09e-4 141.41126,2.248223 1.99558,1.56972 2.85816,3.268662 2.85816,5.629456 0,2.921453 -2.43023,5.823941 -17.872,21.344998 l -17.87201,17.963767 -122.60257,0.28491 -122.602575,0.28491 V 288.18755 464.44501 H 224.08468 400.35587 v -58.23284 -58.23284 l 18.12781,-18.24173 c 15.76214,-15.86121 18.57137,-18.24174 21.52679,-18.24174 7.37739,0 6.98947,-4.58596 6.98947,82.62746 0,74.40616 -0.11127,78.98341 -2.05739,84.6399 -5.12782,14.90428 -16.16885,25.76488 -30.85281,30.34865 -6.02739,1.88151 -15.26741,1.97448 -190.91526,1.9207 l -184.581324,-0.0565 z"
     id="path817"
     inkscape:connector-curvature="0" />
  <path
     style="opacity:1;fill:#ffffff;fill-opacity:1;fill-rule:nonzero;stroke:none;stroke-width:2.38644075;stroke-linecap:round;stroke-linejoin:round;stroke-miterlimit:4;stroke-dasharray:none;stroke-opacity:1"
     d="m 191.02623,413.89251 c -15.77327,-4.23867 -27.96551,-18.00223 -29.939,-33.7975 -0.5034,-4.0291 0.87872,-20.3506 4.4772,-52.87152 l 5.2054,-47.04321 135.13201,-134.9904 C 430.37815,20.843992 441.58982,9.93132 448.08468,6.7987852 c 16.68788,-8.048727 34.16412,-8.2777828 50.66409,-0.6640389 8.03853,3.7092964 9.90183,5.3533307 37.86681,33.4108507 31.13041,31.233419 33.16536,33.862213 36.80848,47.549952 2.07958,7.813251 2.00225,22.961751 -0.15471,30.305121 -4.53672,15.44535 1.25645,9.21766 -142.64845,153.3478 l -134.22895,134.43905 -45.91635,5.16347 c -25.25399,2.8399 -47.62482,5.15767 -49.71295,5.15058 -2.08814,-0.008 -6.46952,-0.73117 -9.73642,-1.60906 z m 54.21099,-50.38182 28.74577,-3.24294 39.05084,-38.75324 c 108.00971,-107.1866 146.98305,-146.22616 146.98305,-147.23283 0,-0.60828 -13.05981,-14.15908 -29.02183,-30.11288 l -29.02183,-29.00689 -93.13552,93.14024 -93.13551,93.14024 -3.65012,32.41657 c -2.00757,17.82911 -3.66049,32.73621 -3.67316,33.1269 -0.0127,0.39069 1.80747,0.49826 4.04475,0.23905 2.23729,-0.25921 17.00339,-1.93061 32.81356,-3.71422 z M 510.626,124.6484 c 8.42975,-8.50169 15.8675,-16.52384 16.52834,-17.82699 0.66084,-1.30315 1.20153,-3.97609 1.20153,-5.93986 0,-3.209808 -2.49556,-6.066047 -24.70421,-28.2747 L 478.94744,47.90264 h -4.77621 c -4.70713,0 -5.01661,0.238598 -21.39749,16.496898 -9.14169,9.073295 -16.62126,17.002108 -16.62126,17.619584 0,1.457098 56.58433,58.086908 58.04025,58.086908 0.60855,0 8.00352,-6.95593 16.43327,-15.45763 z"
     id="path819"
     inkscape:connector-curvature="0" />
</svg>
