<svg width="281" height="370" xmlns="http://www.w3.org/2000/svg">
 <!-- Created with Method Draw - http://github.com/duopixel/Method-Draw/ -->

 <g>
  <title>background</title>
  <rect fill="none" id="canvas_background" height="372" width="283" y="-1" x="-1"/>
  <g display="none" overflow="visible" y="0" x="0" height="100%" width="100%" id="canvasGrid">
   <rect fill="url(#gridpattern)" stroke-width="0" y="0" x="0" height="100%" width="100%"/>
  </g>
 </g>
 <g>
  <title>Layer 1</title>
  <g stroke="null" id="svg_5">
   <path stroke="null" id="svg_4" d="m267.039618,71.357189l-60.149374,-60.149374c-6.452257,-6.452257 -15.19865,-10.108536 -24.303502,-10.108536l-146.322852,0c-18.998312,0.071692 -34.412038,15.485417 -34.412038,34.483729l0,298.23766c0,18.998312 15.413725,34.412038 34.412038,34.412038l206.472226,0c18.998312,0 34.412038,-15.413725 34.412038,-34.412038l0,-238.088286c0,-9.104852 -3.656279,-17.922936 -10.108536,-24.375193zm-27.09948,21.579215l-54.557418,0l0,-54.557418l54.557418,54.557418zm-203.676248,240.884264l0,-298.23766l114.706792,0l0,74.559415c0,9.535002 7.671017,17.206019 17.206019,17.206019l74.559415,0l0,206.472226l-206.472226,0zm22.941358,-34.412038l160.589509,0l0,-91.765434l-16.84756,-16.84756c-3.369512,-3.369512 -8.818085,-3.369512 -12.187597,0l-62.730277,62.730277l-28.318239,-28.318239c-3.369512,-3.369512 -8.818085,-3.369512 -12.187597,0l-28.318239,28.318239l0,45.882717zm34.412038,-172.060189c-18.998312,0 -34.412038,15.413725 -34.412038,34.412038s15.413725,34.412038 34.412038,34.412038s34.412038,-15.413725 34.412038,-34.412038s-15.413725,-34.412038 -34.412038,-34.412038z" fill="#DDDDDD"/>
  </g>
 </g>
</svg>