<?xml version="1.0" encoding="UTF-8" standalone="no"?>
<svg
   xmlns:dc="http://purl.org/dc/elements/1.1/"
   xmlns:cc="http://creativecommons.org/ns#"
   xmlns:rdf="http://www.w3.org/1999/02/22-rdf-syntax-ns#"
   xmlns:svg="http://www.w3.org/2000/svg"
   xmlns="http://www.w3.org/2000/svg"
   xmlns:sodipodi="http://sodipodi.sourceforge.net/DTD/sodipodi-0.dtd"
   xmlns:inkscape="http://www.inkscape.org/namespaces/inkscape"
   aria-hidden="true"
   focusable="false"
   data-prefix="fas"
   data-icon="plus-circle"
   class="svg-inline--fa fa-plus-circle fa-w-16"
   role="img"
   viewBox="0 0 512 512"
   version="1.1"
   id="svg4"
   sodipodi:docname="plus-circle-solidmaistransparenteeredorbranco.svg"
   inkscape:version="0.92.4 (5da689c313, 2019-01-14)">
  <metadata
     id="metadata10">
    <rdf:RDF>
      <cc:Work
         rdf:about="">
        <dc:format>image/svg+xml</dc:format>
        <dc:type
           rdf:resource="http://purl.org/dc/dcmitype/StillImage" />
        <dc:title></dc:title>
      </cc:Work>
    </rdf:RDF>
  </metadata>
  <defs
     id="defs8" />
  <sodipodi:namedview
     pagecolor="#ffffff"
     bordercolor="#666666"
     borderopacity="1"
     objecttolerance="10"
     gridtolerance="10"
     guidetolerance="10"
     inkscape:pageopacity="0"
     inkscape:pageshadow="2"
     inkscape:window-width="1920"
     inkscape:window-height="1017"
     id="namedview6"
     showgrid="false"
     inkscape:zoom="0.4609375"
     inkscape:cx="-144.27119"
     inkscape:cy="256"
     inkscape:window-x="-8"
     inkscape:window-y="-8"
     inkscape:window-maximized="1"
     inkscape:current-layer="svg4" />
  <path
     fill="currentColor"
     d="M256 8C119 8 8 119 8 256s111 248 248 248 248-111 248-248S393 8 256 8zm144 276c0 6.6-5.4 12-12 12h-92v92c0 6.6-5.4 12-12 12h-56c-6.6 0-12-5.4-12-12v-92h-92c-6.6 0-12-5.4-12-12v-56c0-6.6 5.4-12 12-12h92v-92c0-6.6 5.4-12 12-12h56c6.6 0 12 5.4 12 12v92h92c6.6 0 12 5.4 12 12v56z"
     id="path2"
     style="fill:#ffffff" />
  <path
     style="opacity:0;fill:#ffffff;fill-opacity:1;fill-rule:nonzero;stroke:none;stroke-width:4.77288151;stroke-linecap:round;stroke-linejoin:round;stroke-miterlimit:4;stroke-dasharray:none;stroke-opacity:1"
     d="m 221.61356,396.84317 c -3.4413,-2.00437 -3.79661,-6.87104 -3.79661,-52.00182 v -49.7905 h -47.87144 c -28.85018,0 -49.53882,-0.89236 -52.0678,-2.24583 -3.8792,-2.07608 -4.19635,-4.85773 -4.19635,-36.80502 0,-31.94729 0.31715,-34.72894 4.19635,-36.80502 2.52898,-1.35347 23.21762,-2.24583 52.0678,-2.24583 h 47.87144 v -49.82197 c 0,-47.03715 0.23456,-49.94751 4.19636,-52.0678 2.32213,-1.24276 17.82557,-2.24582 34.71186,-2.24582 42.1464,0 39.19347,-4.24981 39.19347,56.40678 v 47.72881 h 47.31416 c 37.43846,0 48.19317,0.64274 51.52543,3.07935 3.84811,2.81381 4.21126,5.91578 4.21126,35.9715 0,30.05572 -0.36315,33.15769 -4.21126,35.9715 -3.33226,2.43661 -14.08697,3.07935 -51.52543,3.07935 h -47.31416 v 47.72881 c 0,60.72583 3.01766,56.43173 -39.59322,56.34081 -17.00339,-0.0362 -32.62373,-1.06106 -34.71186,-2.2773 z"
     id="path12"
     inkscape:connector-curvature="0" />
</svg>
