<?xml version="1.0" encoding="UTF-8" standalone="no"?>
<svg
   xmlns:dc="http://purl.org/dc/elements/1.1/"
   xmlns:cc="http://creativecommons.org/ns#"
   xmlns:rdf="http://www.w3.org/1999/02/22-rdf-syntax-ns#"
   xmlns:svg="http://www.w3.org/2000/svg"
   xmlns="http://www.w3.org/2000/svg"
   xmlns:sodipodi="http://sodipodi.sourceforge.net/DTD/sodipodi-0.dtd"
   xmlns:inkscape="http://www.inkscape.org/namespaces/inkscape"
   aria-hidden="true"
   focusable="false"
   data-prefix="far"
   data-icon="times-circle"
   class="svg-inline--fa fa-times-circle fa-w-16"
   role="img"
   viewBox="0 0 512 512"
   version="1.1"
   id="svg4"
   sodipodi:docname="times-circle-regularXpreto.svg"
   inkscape:version="0.92.4 (5da689c313, 2019-01-14)">
  <metadata
     id="metadata10">
    <rdf:RDF>
      <cc:Work
         rdf:about="">
        <dc:format>image/svg+xml</dc:format>
        <dc:type
           rdf:resource="http://purl.org/dc/dcmitype/StillImage" />
        <dc:title></dc:title>
      </cc:Work>
    </rdf:RDF>
  </metadata>
  <defs
     id="defs8" />
  <sodipodi:namedview
     pagecolor="#ffffff"
     bordercolor="#666666"
     borderopacity="1"
     objecttolerance="10"
     gridtolerance="10"
     guidetolerance="10"
     inkscape:pageopacity="0"
     inkscape:pageshadow="2"
     inkscape:window-width="1920"
     inkscape:window-height="1017"
     id="namedview6"
     showgrid="false"
     inkscape:zoom="1"
     inkscape:cx="262.1897"
     inkscape:cy="268.66777"
     inkscape:window-x="-8"
     inkscape:window-y="-8"
     inkscape:window-maximized="1"
     inkscape:current-layer="svg4" />
  <path
     d="m 248,433 c -165.333333,52.66667 -82.66667,26.33333 0,0 z m 0,0 c -165.333333,52.66667 -82.66667,26.33333 0,0 z m 109.8,-239.2 -62.2,62.2 62.2,62.2 c 4.7,4.7 4.7,12.3 0,17 l -22.6,22.6 c -4.7,4.7 -12.3,4.7 -17,0 L 256,295.6 193.8,357.8 c -4.7,4.7 -12.3,4.7 -17,0 l -22.6,-22.6 c -4.7,-4.7 -4.7,-12.3 0,-17 L 216.4,256 154.2,193.8 c -4.7,-4.7 -4.7,-12.3 0,-17 l 22.6,-22.6 c 4.7,-4.7 12.3,-4.7 17,0 l 62.2,62.2 62.2,-62.2 c 4.7,-4.7 12.3,-4.7 17,0 l 22.6,22.6 c 4.7,4.7 4.7,12.3 0,17 z"
     id="path2"
     style="fill:#000000"
     inkscape:connector-curvature="0"
     sodipodi:nodetypes="ccccscsssscsssscsssscssss" />
  <ellipse
     style="opacity:0;fill:#000000;fill-opacity:1;fill-rule:nonzero;stroke:none;stroke-width:2.20000005;stroke-linecap:round;stroke-linejoin:round;stroke-miterlimit:4;stroke-dasharray:none;stroke-opacity:1"
     id="path21"
     cx="149.15254"
     cy="108.47458"
     rx="96"
     ry="73.762711" />
  <ellipse
     style="opacity:0;fill:#000000;fill-opacity:1;fill-rule:nonzero;stroke:none;stroke-width:2.20000005;stroke-linecap:round;stroke-linejoin:round;stroke-miterlimit:4;stroke-dasharray:none;stroke-opacity:1"
     id="path25"
     cx="32"
     cy="29.288136"
     rx="8.1355934"
     ry="7.5932202" />
</svg>
